PathFileType	4	(X/Y/Z)	./resultDataOpenSim/trcMotMarkerGrf/sub09/qtm-15-08.trc
DataRate	CameraRate	NumFrames	NumMarkers	Units	OrigDataRate	OrigDataStartFrame	OrigNumFrames
250.000000	250.000000	9	24	m	250.000000	117	466
Frame#	Time	L.Toe.Tip			R.Toe.Tip			L.Ankle.Lat			R.Ankle.Lat			L.Ankle.Med			R.Ankle.Med			L.Heel			R.Heel			L.Knee.Lat			R.Knee.Lat			L.Knee.Med			R.Knee.Med			L.Thigh.Upper			R.Thigh.Upper			L.ASIS			R.ASIS			V.Sacral			L.Acromium			R.Acromium			C7			L.Elbow			R.Elbow			L.Wrist.Lat			R.Wrist.Lat
		X1	Y1	Z1	X2	Y2	Z2	X3	Y3	Z3	X4	Y4	Z4	X5	Y5	Z5	X6	Y6	Z6	X7	Y7	Z7	X8	Y8	Z8	X9	Y9	Z9	X10	Y10	Z10	X11	Y11	Z11	X12	Y12	Z12	X13	Y13	Z13	X14	Y14	Z14	X15	Y15	Z15	X16	Y16	Z16	X17	Y17	Z17	X18	Y18	Z18	X19	Y19	Z19	X20	Y20	Z20	X21	Y21	Z21	X22	Y22	Z22	X23	Y23	Z23	X24	Y24	Z24

117	0.464	-0.2292754	0.083818749	-0.040908533	-0.65179687	0.039718593	0.069419405	-0.38085669	0.094267949	-0.077393217	-0.80163104	0.058197481	0.093674444	-0.3617104	0.11313745	0.018798494	-0.78190665	0.099340953	0.0059146843	-0.4405944	0.042228319	-0.028949631	-0.865233	0.038871127	0.037432867	-0.41057026	0.51241194	-0.10043067	-0.67234406	0.50185031	0.17076428	-0.41536884	0.50555182	0.02489119	-0.68350263	0.49287429	0.040911165	-0.5915887	0.89267531	-0.14427579	-0.63611435	0.90524617	0.22841994	-0.52517923	0.97949737	-0.079837335	-0.52531197	0.98376675	0.1589719	-0.69113225	1.0381029	0.033844147	-0.53417499	1.4352827	-0.12839727	-0.54605712	1.4433195	0.20060876	-0.60728998	1.4892944	0.038813174	-0.69744834	1.1041554	-0.17842914	-0.63062897	1.0756875	0.29689174	-0.57994504	0.87214167	-0.23203677	-0.37905753	0.96225953	0.24315789
118	0.468	-0.21043664	0.087012873	-0.039237426	-0.65175883	0.039666784	0.06955547	-0.36219321	0.093928556	-0.076562278	-0.80139728	0.058651093	0.093269676	-0.34389796	0.11369829	0.019843689	-0.78148539	0.09947141	0.0055627352	-0.4207855	0.040720553	-0.028272527	-0.86507489	0.039066425	0.03676719	-0.40391228	0.51096164	-0.10099892	-0.66969414	0.50204362	0.17125267	-0.40873806	0.50405828	0.024346343	-0.68156298	0.49268833	0.041030068	-0.58521762	0.89121377	-0.14431045	-0.63090826	0.90441351	0.2284725	-0.51854172	0.97814615	-0.079696511	-0.51920523	0.98264285	0.15914961	-0.68463891	1.036737	0.033621786	-0.52804323	1.4341872	-0.12841519	-0.54019381	1.4422166	0.20061897	-0.60127291	1.4880476	0.038774739	-0.6919916	1.1035842	-0.17866215	-0.62389868	1.0742974	0.29714112	-0.57589376	0.87110001	-0.23299536	-0.37148676	0.96295273	0.24295048
119	0.472	-0.19191139	0.090422727	-0.037434538	-0.65169716	0.039636345	0.069715243	-0.34371793	0.093864116	-0.075618844	-0.80113332	0.059132416	0.092864548	-0.32629899	0.11454713	0.020956054	-0.78102336	0.099611076	0.005170664	-0.4012092	0.03951239	-0.027519809	-0.8648865	0.039274584	0.036024913	-0.39719873	0.50945301	-0.10164873	-0.66708537	0.50206602	0.17158322	-0.40210495	0.50242596	0.023829152	-0.67948351	0.49242124	0.04111891	-0.57891385	0.88964767	-0.14430956	-0.6257643	0.90339398	0.22871106	-0.51187262	0.97671252	-0.07952886	-0.51307984	0.98146025	0.15934781	-0.6780083	1.0352469	0.033433351	-0.5219004	1.4329987	-0.12842974	-0.53432702	1.4410349	0.20061942	-0.59524625	1.4867286	0.038725019	-0.68651251	1.1029235	-0.17890953	-0.61716066	1.0728176	0.29731599	-0.57180078	0.86995908	-0.2339705	-0.36394444	0.96353869	0.24275741
120	0.476	-0.17373225	0.094046361	-0.035568586	-0.65161478	0.039663923	0.069918679	-0.32548408	0.094065943	-0.074591992	-0.80095339	0.059528027	0.092431856	-0.30893586	0.11561915	0.022036073	-0.7805266	0.099756544	0.0047437269	-0.38190453	0.03858565	-0.02664842	-0.86467537	0.039504216	0.035199772	-0.39036628	0.50786944	-0.10231082	-0.66465622	0.50184315	0.17173726	-0.39536123	0.50066755	0.023442059	-0.67725051	0.4920709	0.041182743	-0.57255429	0.88800722	-0.14426675	-0.62071657	0.90218973	0.22917503	-0.50516913	0.97520973	-0.07933939	-0.5069471	0.98020308	0.15957216	-0.67135804	1.0336451	0.03328068	-0.51575171	1.431717	-0.12844681	-0.52845208	1.4397681	0.20060988	-0.58920885	1.4853362	0.038655573	-0.68099753	1.1021845	-0.17933845	-0.61041222	1.0712476	0.29740831	-0.5676635	0.86872969	-0.23495745	-0.3564336	0.96401231	0.24257763
121	0.48	-0.15594333	0.097878351	-0.033733423	-0.65153087	0.039753976	0.070150177	-0.30756562	0.094500533	-0.073532421	-0.80089344	0.059816547	0.091921407	-0.29184776	0.11687402	0.023032351	-0.78000302	0.099900142	0.0042840527	-0.36290009	0.03791403	-0.02566532	-0.86444732	0.039760948	0.034298026	-0.38342509	0.50620503	-0.1029025	-0.6623847	0.50140877	0.17178669	-0.38856936	0.49878244	0.023172511	-0.6748641	0.4916507	0.041236432	-0.56608131	0.88630894	-0.14417246	-0.61563699	0.90085573	0.22967453	-0.49843549	0.97365035	-0.079128097	-0.50082953	0.97886055	0.15982695	-0.66485173	1.0319686	0.033139497	-0.50959785	1.4303577	-0.12847036	-0.52256893	1.4384155	0.20059095	-0.5831561	1.483877	0.038568816	-0.67534566	1.1013619	-0.17998048	-0.60366241	1.0696075	0.29746879	-0.56347144	0.86742132	-0.23594876	-0.34895861	0.96436723	0.24240619
122	0.484	-0.13858417	0.1018963	-0.031999555	-0.65147142	0.039856406	0.070350581	-0.29004448	0.095118105	-0.072505284	-0.80090952	0.060050152	0.091341494	-0.27506803	0.11828898	0.023945747	-0.77946257	0.10003054	0.0037972542	-0.34421629	0.03746496	-0.02462707	-0.86420418	0.040046611	0.033348776	-0.37646474	0.50447872	-0.10336416	-0.66018977	0.50082598	0.17179734	-0.38184785	0.49677369	0.022961432	-0.67234477	0.49119406	0.041284279	-0.55948814	0.88455384	-0.14401895	-0.61036769	0.89948365	0.22994517	-0.49168139	0.97203863	-0.078891771	-0.49474161	0.97743577	0.16011199	-0.65854333	1.0302501	0.032976088	-0.50343221	1.4289285	-0.12849749	-0.51668205	1.4369895	0.20056812	-0.57708121	1.4823638	0.038476325	-0.66950945	1.1004426	-0.18071828	-0.59691829	1.0679217	0.29756109	-0.5592135	0.86603653	-0.23694125	-0.34152235	0.96460252	0.2422406
123	0.488	-0.12166792	0.1060432	-0.030384848	-0.65144064	0.039897482	0.070464613	-0.27297327	0.095878735	-0.071567832	-0.80093846	0.060278484	0.090750902	-0.25862379	0.11983373	0.024777806	-0.77890923	0.10013808	0.0032933637	-0.32587313	0.037203351	-0.023614517	-0.86394722	0.040360526	0.032397664	-0.36956923	0.50272771	-0.10367984	-0.65800663	0.50013858	0.17179224	-0.37520887	0.49466441	0.022800118	-0.66971071	0.49072435	0.041309973	-0.55282179	0.8827284	-0.14380966	-0.60489883	0.8981339	0.22990613	-0.48491472	0.97037073	-0.078632611	-0.48867266	0.97593539	0.16041592	-0.65232378	1.0284887	0.032766865	-0.49724628	1.4274263	-0.12852692	-0.51079558	1.435507	0.20054913	-0.57098322	1.4808021	0.038384662	-0.66360365	1.099425	-0.18142098	-0.59017047	1.0661954	0.2976884	-0.55488195	0.86457235	-0.23793419	-0.33413489	0.96472157	0.2420893
124	0.492	-0.10519334	0.11023367	-0.028865624	-0.6514141	0.039849296	0.070498725	-0.25635739	0.096774168	-0.070746966	-0.80093422	0.060515609	0.090166416	-0.24256054	0.1214695	0.025493808	-0.77833992	0.10022357	0.0027874559	-0.30789464	0.037094184	-0.022716162	-0.86368201	0.040698902	0.031481732	-0.36273011	0.50098689	-0.10385997	-0.65579592	0.4993698	0.17176722	-0.36857031	0.49250144	0.022725395	-0.66696028	0.49022668	0.041289146	-0.54613754	0.88081918	-0.14356559	-0.5993262	0.89679906	0.22965592	-0.47813807	0.96864219	-0.078361347	-0.48260266	0.97436294	0.16072134	-0.64604245	1.0266526	0.032484571	-0.49103615	1.4258495	-0.12856468	-0.50490724	1.4339749	0.20053262	-0.56487136	1.4791906	0.038289371	-0.65776883	1.0983194	-0.18203844	-0.58340855	1.0644181	0.29780295	-0.55047951	0.86302479	-0.23892804	-0.32680906	0.96472372	0.24196397
125	0.496	-0.089171406	0.11438602	-0.027400466	-0.65136882	0.039750058	0.070504214	-0.24017488	0.097826066	-0.070041244	-0.80088648	0.060757206	0.089567501	-0.22694064	0.12315279	0.026067757	-0.77775982	0.10029897	0.0022917904	-0.29031041	0.037103931	-0.022020839	-0.86341895	0.041058199	0.030611497	-0.35588324	0.49927318	-0.10392233	-0.6535311	0.49853406	0.17171056	-0.36187996	0.49034319	0.022759875	-0.66409765	0.48967526	0.041206469	-0.5394443	0.87882622	-0.14332331	-0.59372637	0.89544343	0.22930811	-0.47135598	0.96685652	-0.078095588	-0.47652843	0.97272495	0.16101648	-0.63968294	1.0247399	0.032057175	-0.48480435	1.4242035	-0.12862115	-0.49900741	1.4323928	0.20051121	-0.55876026	1.477543	0.038180307	-0.6520185	1.0971373	-0.18258221	-0.57665659	1.062587	0.29789322	-0.54602667	0.86139736	-0.23993229	-0.31954563	0.96460704	0.24186417
